<mxfile host="app.diagrams.net" modified="2024-05-04T20:39:57.935Z" agent="Mozilla/5.0 (Windows NT 10.0; Win64; x64) AppleWebKit/537.36 (KHTML, like Gecko) Chrome/124.0.0.0 Safari/537.36" etag="s4ymKl2E1ZDlpHWs4Ezy" version="24.3.1" type="github" pages="2">
  <diagram id="R2lEEEUBdFMjLlhIrx00" name="Q5">
    <mxGraphModel dx="1434" dy="780" grid="1" gridSize="10" guides="1" tooltips="1" connect="1" arrows="1" fold="1" page="1" pageScale="1" pageWidth="850" pageHeight="1100" math="0" shadow="0" extFonts="Permanent Marker^https://fonts.googleapis.com/css?family=Permanent+Marker">
      <root>
        <mxCell id="0" />
        <mxCell id="1" parent="0" />
        <mxCell id="7MfGvF8stbxbetLP4ccS-1" value="Product" style="swimlane;fontStyle=0;childLayout=stackLayout;horizontal=1;startSize=26;horizontalStack=0;resizeParent=1;resizeParentMax=0;resizeLast=0;collapsible=1;marginBottom=0;align=center;fontSize=14;fillColor=#ffe6cc;strokeColor=#d79b00;" vertex="1" parent="1">
          <mxGeometry x="345" y="190" width="160" height="206" as="geometry" />
        </mxCell>
        <mxCell id="7MfGvF8stbxbetLP4ccS-2" value="ID" style="text;strokeColor=none;fillColor=none;spacingLeft=4;spacingRight=4;overflow=hidden;rotatable=0;points=[[0,0.5],[1,0.5]];portConstraint=eastwest;fontSize=12;whiteSpace=wrap;html=1;fontStyle=4" vertex="1" parent="7MfGvF8stbxbetLP4ccS-1">
          <mxGeometry y="26" width="160" height="30" as="geometry" />
        </mxCell>
        <mxCell id="7MfGvF8stbxbetLP4ccS-3" value="vazn" style="text;strokeColor=none;fillColor=none;spacingLeft=4;spacingRight=4;overflow=hidden;rotatable=0;points=[[0,0.5],[1,0.5]];portConstraint=eastwest;fontSize=12;whiteSpace=wrap;html=1;" vertex="1" parent="7MfGvF8stbxbetLP4ccS-1">
          <mxGeometry y="56" width="160" height="30" as="geometry" />
        </mxCell>
        <mxCell id="7MfGvF8stbxbetLP4ccS-4" value="abaad" style="text;strokeColor=none;fillColor=none;spacingLeft=4;spacingRight=4;overflow=hidden;rotatable=0;points=[[0,0.5],[1,0.5]];portConstraint=eastwest;fontSize=12;whiteSpace=wrap;html=1;" vertex="1" parent="7MfGvF8stbxbetLP4ccS-1">
          <mxGeometry y="86" width="160" height="30" as="geometry" />
        </mxCell>
        <mxCell id="7MfGvF8stbxbetLP4ccS-9" value="bimeh" style="text;strokeColor=none;fillColor=none;spacingLeft=4;spacingRight=4;overflow=hidden;rotatable=0;points=[[0,0.5],[1,0.5]];portConstraint=eastwest;fontSize=12;whiteSpace=wrap;html=1;" vertex="1" parent="7MfGvF8stbxbetLP4ccS-1">
          <mxGeometry y="116" width="160" height="30" as="geometry" />
        </mxCell>
        <mxCell id="7MfGvF8stbxbetLP4ccS-10" value="maghsad" style="text;strokeColor=none;fillColor=none;spacingLeft=4;spacingRight=4;overflow=hidden;rotatable=0;points=[[0,0.5],[1,0.5]];portConstraint=eastwest;fontSize=12;whiteSpace=wrap;html=1;" vertex="1" parent="7MfGvF8stbxbetLP4ccS-1">
          <mxGeometry y="146" width="160" height="30" as="geometry" />
        </mxCell>
        <mxCell id="7MfGvF8stbxbetLP4ccS-11" value="tarikh_tahvil" style="text;strokeColor=none;fillColor=none;spacingLeft=4;spacingRight=4;overflow=hidden;rotatable=0;points=[[0,0.5],[1,0.5]];portConstraint=eastwest;fontSize=12;whiteSpace=wrap;html=1;" vertex="1" parent="7MfGvF8stbxbetLP4ccS-1">
          <mxGeometry y="176" width="160" height="30" as="geometry" />
        </mxCell>
        <mxCell id="7MfGvF8stbxbetLP4ccS-5" value="Branch" style="swimlane;fontStyle=0;childLayout=stackLayout;horizontal=1;startSize=26;horizontalStack=0;resizeParent=1;resizeParentMax=0;resizeLast=0;collapsible=1;marginBottom=0;align=center;fontSize=14;fillColor=#f8cecc;strokeColor=#b85450;" vertex="1" parent="1">
          <mxGeometry x="110" y="74" width="160" height="116" as="geometry" />
        </mxCell>
        <mxCell id="7MfGvF8stbxbetLP4ccS-6" value="ID" style="text;strokeColor=none;fillColor=none;spacingLeft=4;spacingRight=4;overflow=hidden;rotatable=0;points=[[0,0.5],[1,0.5]];portConstraint=eastwest;fontSize=12;whiteSpace=wrap;html=1;fontStyle=4" vertex="1" parent="7MfGvF8stbxbetLP4ccS-5">
          <mxGeometry y="26" width="160" height="30" as="geometry" />
        </mxCell>
        <mxCell id="7MfGvF8stbxbetLP4ccS-7" value="nou" style="text;strokeColor=none;fillColor=none;spacingLeft=4;spacingRight=4;overflow=hidden;rotatable=0;points=[[0,0.5],[1,0.5]];portConstraint=eastwest;fontSize=12;whiteSpace=wrap;html=1;" vertex="1" parent="7MfGvF8stbxbetLP4ccS-5">
          <mxGeometry y="56" width="160" height="30" as="geometry" />
        </mxCell>
        <mxCell id="7MfGvF8stbxbetLP4ccS-8" value="address" style="text;strokeColor=none;fillColor=none;spacingLeft=4;spacingRight=4;overflow=hidden;rotatable=0;points=[[0,0.5],[1,0.5]];portConstraint=eastwest;fontSize=12;whiteSpace=wrap;html=1;" vertex="1" parent="7MfGvF8stbxbetLP4ccS-5">
          <mxGeometry y="86" width="160" height="30" as="geometry" />
        </mxCell>
        <mxCell id="7MfGvF8stbxbetLP4ccS-12" value="Transportion" style="swimlane;fontStyle=0;childLayout=stackLayout;horizontal=1;startSize=26;horizontalStack=0;resizeParent=1;resizeParentMax=0;resizeLast=0;collapsible=1;marginBottom=0;align=center;fontSize=14;fillColor=#f8cecc;strokeColor=#b85450;" vertex="1" parent="1">
          <mxGeometry x="600" y="44" width="160" height="146" as="geometry" />
        </mxCell>
        <mxCell id="7MfGvF8stbxbetLP4ccS-13" value="ID" style="text;strokeColor=none;fillColor=none;spacingLeft=4;spacingRight=4;overflow=hidden;rotatable=0;points=[[0,0.5],[1,0.5]];portConstraint=eastwest;fontSize=12;whiteSpace=wrap;html=1;fontStyle=4" vertex="1" parent="7MfGvF8stbxbetLP4ccS-12">
          <mxGeometry y="26" width="160" height="30" as="geometry" />
        </mxCell>
        <mxCell id="7MfGvF8stbxbetLP4ccS-14" value="tedad" style="text;strokeColor=none;fillColor=none;spacingLeft=4;spacingRight=4;overflow=hidden;rotatable=0;points=[[0,0.5],[1,0.5]];portConstraint=eastwest;fontSize=12;whiteSpace=wrap;html=1;" vertex="1" parent="7MfGvF8stbxbetLP4ccS-12">
          <mxGeometry y="56" width="160" height="30" as="geometry" />
        </mxCell>
        <mxCell id="7MfGvF8stbxbetLP4ccS-16" value="nou" style="text;strokeColor=none;fillColor=none;spacingLeft=4;spacingRight=4;overflow=hidden;rotatable=0;points=[[0,0.5],[1,0.5]];portConstraint=eastwest;fontSize=12;whiteSpace=wrap;html=1;" vertex="1" parent="7MfGvF8stbxbetLP4ccS-12">
          <mxGeometry y="86" width="160" height="30" as="geometry" />
        </mxCell>
        <mxCell id="7MfGvF8stbxbetLP4ccS-15" value="masir" style="text;strokeColor=none;fillColor=none;spacingLeft=4;spacingRight=4;overflow=hidden;rotatable=0;points=[[0,0.5],[1,0.5]];portConstraint=eastwest;fontSize=12;whiteSpace=wrap;html=1;" vertex="1" parent="7MfGvF8stbxbetLP4ccS-12">
          <mxGeometry y="116" width="160" height="30" as="geometry" />
        </mxCell>
        <mxCell id="7MfGvF8stbxbetLP4ccS-17" value="daryaft mishavad" style="shape=rhombus;perimeter=rhombusPerimeter;whiteSpace=wrap;html=1;align=center;fillColor=#1ba1e2;fontColor=#ffffff;strokeColor=#006EAF;" vertex="1" parent="1">
          <mxGeometry x="150" y="263" width="120" height="60" as="geometry" />
        </mxCell>
        <mxCell id="7MfGvF8stbxbetLP4ccS-19" value="ersal mishavad" style="shape=rhombus;perimeter=rhombusPerimeter;whiteSpace=wrap;html=1;align=center;fillColor=#1ba1e2;fontColor=#ffffff;strokeColor=#006EAF;" vertex="1" parent="1">
          <mxGeometry x="600" y="261" width="120" height="60" as="geometry" />
        </mxCell>
        <mxCell id="7MfGvF8stbxbetLP4ccS-20" value="" style="endArrow=none;html=1;rounded=0;exitX=1;exitY=0.5;exitDx=0;exitDy=0;entryX=0;entryY=0.5;entryDx=0;entryDy=0;" edge="1" parent="1" source="7MfGvF8stbxbetLP4ccS-17" target="7MfGvF8stbxbetLP4ccS-4">
          <mxGeometry relative="1" as="geometry">
            <mxPoint x="265" y="292.5" as="sourcePoint" />
            <mxPoint x="340" y="210" as="targetPoint" />
          </mxGeometry>
        </mxCell>
        <mxCell id="7MfGvF8stbxbetLP4ccS-21" value="N" style="resizable=0;html=1;whiteSpace=wrap;align=right;verticalAlign=bottom;" connectable="0" vertex="1" parent="7MfGvF8stbxbetLP4ccS-20">
          <mxGeometry x="1" relative="1" as="geometry" />
        </mxCell>
        <mxCell id="7MfGvF8stbxbetLP4ccS-24" value="" style="endArrow=none;html=1;rounded=0;entryX=0.626;entryY=1.051;entryDx=0;entryDy=0;entryPerimeter=0;exitX=0;exitY=0.5;exitDx=0;exitDy=0;" edge="1" parent="1" target="7MfGvF8stbxbetLP4ccS-8">
          <mxGeometry relative="1" as="geometry">
            <mxPoint x="210.48" y="263" as="sourcePoint" />
            <mxPoint x="209.51999999999995" y="192.99" as="targetPoint" />
            <Array as="points" />
          </mxGeometry>
        </mxCell>
        <mxCell id="7MfGvF8stbxbetLP4ccS-25" value="N" style="resizable=0;html=1;whiteSpace=wrap;align=right;verticalAlign=bottom;" connectable="0" vertex="1" parent="7MfGvF8stbxbetLP4ccS-24">
          <mxGeometry x="1" relative="1" as="geometry" />
        </mxCell>
        <mxCell id="7MfGvF8stbxbetLP4ccS-26" value="" style="endArrow=none;html=1;rounded=0;entryX=1;entryY=0.5;entryDx=0;entryDy=0;exitX=0;exitY=0.5;exitDx=0;exitDy=0;" edge="1" parent="1" source="7MfGvF8stbxbetLP4ccS-19" target="7MfGvF8stbxbetLP4ccS-4">
          <mxGeometry relative="1" as="geometry">
            <mxPoint x="600" y="450" as="sourcePoint" />
            <mxPoint x="760" y="450" as="targetPoint" />
          </mxGeometry>
        </mxCell>
        <mxCell id="7MfGvF8stbxbetLP4ccS-27" value="N" style="resizable=0;html=1;whiteSpace=wrap;align=right;verticalAlign=bottom;" connectable="0" vertex="1" parent="7MfGvF8stbxbetLP4ccS-26">
          <mxGeometry x="1" relative="1" as="geometry" />
        </mxCell>
        <mxCell id="7MfGvF8stbxbetLP4ccS-28" value="" style="endArrow=none;html=1;rounded=0;entryX=0.375;entryY=1.1;entryDx=0;entryDy=0;entryPerimeter=0;" edge="1" parent="1" target="7MfGvF8stbxbetLP4ccS-15">
          <mxGeometry relative="1" as="geometry">
            <mxPoint x="660" y="263" as="sourcePoint" />
            <mxPoint x="676.96" y="164.49" as="targetPoint" />
          </mxGeometry>
        </mxCell>
        <mxCell id="7MfGvF8stbxbetLP4ccS-29" value="1" style="resizable=0;html=1;whiteSpace=wrap;align=right;verticalAlign=bottom;" connectable="0" vertex="1" parent="7MfGvF8stbxbetLP4ccS-28">
          <mxGeometry x="1" relative="1" as="geometry" />
        </mxCell>
      </root>
    </mxGraphModel>
  </diagram>
  <diagram id="4xW9xqv9T1d5m7kkwqsE" name="Q6">
    <mxGraphModel dx="2537" dy="2018" grid="1" gridSize="10" guides="1" tooltips="1" connect="1" arrows="1" fold="1" page="1" pageScale="1" pageWidth="850" pageHeight="1100" math="0" shadow="0">
      <root>
        <mxCell id="0" />
        <mxCell id="1" parent="0" />
        <mxCell id="0lTR1NNInt7fkRxmFE-t-1" value="Gift" style="swimlane;fontStyle=0;childLayout=stackLayout;horizontal=1;startSize=26;horizontalStack=0;resizeParent=1;resizeParentMax=0;resizeLast=0;collapsible=1;marginBottom=0;align=center;fontSize=14;fillColor=#1ba1e2;fontColor=#ffffff;strokeColor=#006EAF;" vertex="1" parent="1">
          <mxGeometry x="1020" y="70" width="160" height="146" as="geometry" />
        </mxCell>
        <mxCell id="0lTR1NNInt7fkRxmFE-t-2" value="&lt;u&gt;GiftID&lt;/u&gt;" style="text;strokeColor=none;fillColor=none;spacingLeft=4;spacingRight=4;overflow=hidden;rotatable=0;points=[[0,0.5],[1,0.5]];portConstraint=eastwest;fontSize=12;whiteSpace=wrap;html=1;" vertex="1" parent="0lTR1NNInt7fkRxmFE-t-1">
          <mxGeometry y="26" width="160" height="30" as="geometry" />
        </mxCell>
        <mxCell id="0lTR1NNInt7fkRxmFE-t-3" value="GiverUserID (FK)" style="text;strokeColor=none;fillColor=none;spacingLeft=4;spacingRight=4;overflow=hidden;rotatable=0;points=[[0,0.5],[1,0.5]];portConstraint=eastwest;fontSize=12;whiteSpace=wrap;html=1;" vertex="1" parent="0lTR1NNInt7fkRxmFE-t-1">
          <mxGeometry y="56" width="160" height="30" as="geometry" />
        </mxCell>
        <mxCell id="0lTR1NNInt7fkRxmFE-t-4" value="RecieverUserID (FK)" style="text;strokeColor=none;fillColor=none;spacingLeft=4;spacingRight=4;overflow=hidden;rotatable=0;points=[[0,0.5],[1,0.5]];portConstraint=eastwest;fontSize=12;whiteSpace=wrap;html=1;" vertex="1" parent="0lTR1NNInt7fkRxmFE-t-1">
          <mxGeometry y="86" width="160" height="30" as="geometry" />
        </mxCell>
        <mxCell id="0lTR1NNInt7fkRxmFE-t-5" value="BookID (FK)" style="text;strokeColor=none;fillColor=none;spacingLeft=4;spacingRight=4;overflow=hidden;rotatable=0;points=[[0,0.5],[1,0.5]];portConstraint=eastwest;fontSize=12;whiteSpace=wrap;html=1;" vertex="1" parent="0lTR1NNInt7fkRxmFE-t-1">
          <mxGeometry y="116" width="160" height="30" as="geometry" />
        </mxCell>
        <mxCell id="0lTR1NNInt7fkRxmFE-t-6" value="Shopping Cart" style="swimlane;fontStyle=0;childLayout=stackLayout;horizontal=1;startSize=26;horizontalStack=0;resizeParent=1;resizeParentMax=0;resizeLast=0;collapsible=1;marginBottom=0;align=center;fontSize=14;fillColor=#1ba1e2;fontColor=#ffffff;strokeColor=#006EAF;" vertex="1" parent="1">
          <mxGeometry x="540" y="70" width="160" height="116" as="geometry" />
        </mxCell>
        <mxCell id="0lTR1NNInt7fkRxmFE-t-7" value="&lt;u&gt;CartID&lt;/u&gt;" style="text;strokeColor=none;fillColor=none;spacingLeft=4;spacingRight=4;overflow=hidden;rotatable=0;points=[[0,0.5],[1,0.5]];portConstraint=eastwest;fontSize=12;whiteSpace=wrap;html=1;" vertex="1" parent="0lTR1NNInt7fkRxmFE-t-6">
          <mxGeometry y="26" width="160" height="30" as="geometry" />
        </mxCell>
        <mxCell id="0lTR1NNInt7fkRxmFE-t-8" value="UserID (FK)" style="text;strokeColor=none;fillColor=none;spacingLeft=4;spacingRight=4;overflow=hidden;rotatable=0;points=[[0,0.5],[1,0.5]];portConstraint=eastwest;fontSize=12;whiteSpace=wrap;html=1;" vertex="1" parent="0lTR1NNInt7fkRxmFE-t-6">
          <mxGeometry y="56" width="160" height="30" as="geometry" />
        </mxCell>
        <mxCell id="0lTR1NNInt7fkRxmFE-t-9" value="TotalPrice" style="text;strokeColor=none;fillColor=none;spacingLeft=4;spacingRight=4;overflow=hidden;rotatable=0;points=[[0,0.5],[1,0.5]];portConstraint=eastwest;fontSize=12;whiteSpace=wrap;html=1;" vertex="1" parent="0lTR1NNInt7fkRxmFE-t-6">
          <mxGeometry y="86" width="160" height="30" as="geometry" />
        </mxCell>
        <mxCell id="0lTR1NNInt7fkRxmFE-t-10" value="Favorites" style="swimlane;fontStyle=0;childLayout=stackLayout;horizontal=1;startSize=26;horizontalStack=0;resizeParent=1;resizeParentMax=0;resizeLast=0;collapsible=1;marginBottom=0;align=center;fontSize=14;fillColor=#1ba1e2;fontColor=#ffffff;strokeColor=#006EAF;" vertex="1" parent="1">
          <mxGeometry x="750" y="334" width="160" height="172" as="geometry" />
        </mxCell>
        <mxCell id="0lTR1NNInt7fkRxmFE-t-11" value="ID" style="text;strokeColor=none;fillColor=none;spacingLeft=4;spacingRight=4;overflow=hidden;rotatable=0;points=[[0,0.5],[1,0.5]];portConstraint=eastwest;fontSize=12;whiteSpace=wrap;html=1;fontStyle=4" vertex="1" parent="0lTR1NNInt7fkRxmFE-t-10">
          <mxGeometry y="26" width="160" height="30" as="geometry" />
        </mxCell>
        <mxCell id="0lTR1NNInt7fkRxmFE-t-12" value="{Books}" style="text;strokeColor=none;fillColor=none;spacingLeft=4;spacingRight=4;overflow=hidden;rotatable=0;points=[[0,0.5],[1,0.5]];portConstraint=eastwest;fontSize=12;whiteSpace=wrap;html=1;fontStyle=0" vertex="1" parent="0lTR1NNInt7fkRxmFE-t-10">
          <mxGeometry y="56" width="160" height="30" as="geometry" />
        </mxCell>
        <mxCell id="0lTR1NNInt7fkRxmFE-t-13" value="{Author}" style="text;strokeColor=none;fillColor=none;spacingLeft=4;spacingRight=4;overflow=hidden;rotatable=0;points=[[0,0.5],[1,0.5]];portConstraint=eastwest;fontSize=12;whiteSpace=wrap;html=1;" vertex="1" parent="0lTR1NNInt7fkRxmFE-t-10">
          <mxGeometry y="86" width="160" height="26" as="geometry" />
        </mxCell>
        <mxCell id="0lTR1NNInt7fkRxmFE-t-14" value="{Type}" style="text;strokeColor=none;fillColor=none;spacingLeft=4;spacingRight=4;overflow=hidden;rotatable=0;points=[[0,0.5],[1,0.5]];portConstraint=eastwest;fontSize=12;whiteSpace=wrap;html=1;" vertex="1" parent="0lTR1NNInt7fkRxmFE-t-10">
          <mxGeometry y="112" width="160" height="30" as="geometry" />
        </mxCell>
        <mxCell id="0lTR1NNInt7fkRxmFE-t-15" value="{Genre}" style="text;strokeColor=none;fillColor=none;spacingLeft=4;spacingRight=4;overflow=hidden;rotatable=0;points=[[0,0.5],[1,0.5]];portConstraint=eastwest;fontSize=12;whiteSpace=wrap;html=1;" vertex="1" parent="0lTR1NNInt7fkRxmFE-t-10">
          <mxGeometry y="142" width="160" height="30" as="geometry" />
        </mxCell>
        <mxCell id="0lTR1NNInt7fkRxmFE-t-16" style="edgeStyle=none;rounded=0;orthogonalLoop=1;jettySize=auto;html=1;elbow=vertical;" edge="1" parent="1" source="0lTR1NNInt7fkRxmFE-t-99">
          <mxGeometry relative="1" as="geometry">
            <mxPoint x="430" y="670" as="targetPoint" />
            <Array as="points">
              <mxPoint x="430" y="730" />
            </Array>
          </mxGeometry>
        </mxCell>
        <mxCell id="0lTR1NNInt7fkRxmFE-t-17" value="Read List" style="swimlane;fontStyle=0;childLayout=stackLayout;horizontal=1;startSize=26;horizontalStack=0;resizeParent=1;resizeParentMax=0;resizeLast=0;collapsible=1;marginBottom=0;align=center;fontSize=14;fillColor=#1ba1e2;fontColor=#ffffff;strokeColor=#006EAF;" vertex="1" parent="1">
          <mxGeometry x="30" y="690" width="160" height="86" as="geometry" />
        </mxCell>
        <mxCell id="0lTR1NNInt7fkRxmFE-t-18" value="&lt;u&gt;UserID (FK)&lt;/u&gt;" style="text;strokeColor=none;fillColor=none;spacingLeft=4;spacingRight=4;overflow=hidden;rotatable=0;points=[[0,0.5],[1,0.5]];portConstraint=eastwest;fontSize=12;whiteSpace=wrap;html=1;" vertex="1" parent="0lTR1NNInt7fkRxmFE-t-17">
          <mxGeometry y="26" width="160" height="30" as="geometry" />
        </mxCell>
        <mxCell id="0lTR1NNInt7fkRxmFE-t-19" value="{Books}" style="text;strokeColor=none;fillColor=none;spacingLeft=4;spacingRight=4;overflow=hidden;rotatable=0;points=[[0,0.5],[1,0.5]];portConstraint=eastwest;fontSize=12;whiteSpace=wrap;html=1;" vertex="1" parent="0lTR1NNInt7fkRxmFE-t-17">
          <mxGeometry y="56" width="160" height="30" as="geometry" />
        </mxCell>
        <mxCell id="0lTR1NNInt7fkRxmFE-t-20" value="Book" style="swimlane;fontStyle=0;childLayout=stackLayout;horizontal=1;startSize=26;horizontalStack=0;resizeParent=1;resizeParentMax=0;resizeLast=0;collapsible=1;marginBottom=0;align=center;fontSize=14;fillColor=#1ba1e2;fontColor=#ffffff;strokeColor=#006EAF;" vertex="1" parent="1">
          <mxGeometry x="310" y="140" width="160" height="206" as="geometry" />
        </mxCell>
        <mxCell id="0lTR1NNInt7fkRxmFE-t-21" value="&lt;u&gt;ID&lt;/u&gt;" style="text;strokeColor=none;fillColor=none;spacingLeft=4;spacingRight=4;overflow=hidden;rotatable=0;points=[[0,0.5],[1,0.5]];portConstraint=eastwest;fontSize=12;whiteSpace=wrap;html=1;" vertex="1" parent="0lTR1NNInt7fkRxmFE-t-20">
          <mxGeometry y="26" width="160" height="30" as="geometry" />
        </mxCell>
        <mxCell id="0lTR1NNInt7fkRxmFE-t-22" value="Title" style="text;strokeColor=none;fillColor=none;spacingLeft=4;spacingRight=4;overflow=hidden;rotatable=0;points=[[0,0.5],[1,0.5]];portConstraint=eastwest;fontSize=12;whiteSpace=wrap;html=1;" vertex="1" parent="0lTR1NNInt7fkRxmFE-t-20">
          <mxGeometry y="56" width="160" height="30" as="geometry" />
        </mxCell>
        <mxCell id="0lTR1NNInt7fkRxmFE-t-23" value="Author" style="text;strokeColor=none;fillColor=none;spacingLeft=4;spacingRight=4;overflow=hidden;rotatable=0;points=[[0,0.5],[1,0.5]];portConstraint=eastwest;fontSize=12;whiteSpace=wrap;html=1;" vertex="1" parent="0lTR1NNInt7fkRxmFE-t-20">
          <mxGeometry y="86" width="160" height="30" as="geometry" />
        </mxCell>
        <mxCell id="0lTR1NNInt7fkRxmFE-t-24" value="Type" style="text;strokeColor=none;fillColor=none;spacingLeft=4;spacingRight=4;overflow=hidden;rotatable=0;points=[[0,0.5],[1,0.5]];portConstraint=eastwest;fontSize=12;whiteSpace=wrap;html=1;" vertex="1" parent="0lTR1NNInt7fkRxmFE-t-20">
          <mxGeometry y="116" width="160" height="30" as="geometry" />
        </mxCell>
        <mxCell id="0lTR1NNInt7fkRxmFE-t-25" value="Genre" style="text;strokeColor=none;fillColor=none;spacingLeft=4;spacingRight=4;overflow=hidden;rotatable=0;points=[[0,0.5],[1,0.5]];portConstraint=eastwest;fontSize=12;whiteSpace=wrap;html=1;" vertex="1" parent="0lTR1NNInt7fkRxmFE-t-20">
          <mxGeometry y="146" width="160" height="30" as="geometry" />
        </mxCell>
        <mxCell id="0lTR1NNInt7fkRxmFE-t-26" value="Price" style="text;strokeColor=none;fillColor=none;spacingLeft=4;spacingRight=4;overflow=hidden;rotatable=0;points=[[0,0.5],[1,0.5]];portConstraint=eastwest;fontSize=12;whiteSpace=wrap;html=1;" vertex="1" parent="0lTR1NNInt7fkRxmFE-t-20">
          <mxGeometry y="176" width="160" height="30" as="geometry" />
        </mxCell>
        <mxCell id="0lTR1NNInt7fkRxmFE-t-27" value="Authentication System" style="swimlane;fontStyle=0;childLayout=stackLayout;horizontal=1;startSize=26;horizontalStack=0;resizeParent=1;resizeParentMax=0;resizeLast=0;collapsible=1;marginBottom=0;align=center;fontSize=14;fillColor=#1ba1e2;fontColor=#ffffff;strokeColor=#006EAF;" vertex="1" parent="1">
          <mxGeometry x="850" y="565" width="160" height="86" as="geometry" />
        </mxCell>
        <mxCell id="0lTR1NNInt7fkRxmFE-t-28" value="&lt;u&gt;PhoneNumber&lt;/u&gt;" style="text;strokeColor=none;fillColor=none;spacingLeft=4;spacingRight=4;overflow=hidden;rotatable=0;points=[[0,0.5],[1,0.5]];portConstraint=eastwest;fontSize=12;whiteSpace=wrap;html=1;" vertex="1" parent="0lTR1NNInt7fkRxmFE-t-27">
          <mxGeometry y="26" width="160" height="30" as="geometry" />
        </mxCell>
        <mxCell id="0lTR1NNInt7fkRxmFE-t-29" value="Password" style="text;strokeColor=none;fillColor=none;spacingLeft=4;spacingRight=4;overflow=hidden;rotatable=0;points=[[0,0.5],[1,0.5]];portConstraint=eastwest;fontSize=12;whiteSpace=wrap;html=1;fontStyle=4" vertex="1" parent="0lTR1NNInt7fkRxmFE-t-27">
          <mxGeometry y="56" width="160" height="30" as="geometry" />
        </mxCell>
        <mxCell id="0lTR1NNInt7fkRxmFE-t-30" value="Review" style="swimlane;fontStyle=0;childLayout=stackLayout;horizontal=1;startSize=26;horizontalStack=0;resizeParent=1;resizeParentMax=0;resizeLast=0;collapsible=1;marginBottom=0;align=center;fontSize=14;fillColor=#1ba1e2;fontColor=#ffffff;strokeColor=#006EAF;" vertex="1" parent="1">
          <mxGeometry x="300" y="820" width="160" height="176" as="geometry" />
        </mxCell>
        <mxCell id="0lTR1NNInt7fkRxmFE-t-31" value="&lt;u&gt;Review_ID&lt;/u&gt;" style="text;strokeColor=none;fillColor=none;spacingLeft=4;spacingRight=4;overflow=hidden;rotatable=0;points=[[0,0.5],[1,0.5]];portConstraint=eastwest;fontSize=12;whiteSpace=wrap;html=1;" vertex="1" parent="0lTR1NNInt7fkRxmFE-t-30">
          <mxGeometry y="26" width="160" height="30" as="geometry" />
        </mxCell>
        <mxCell id="0lTR1NNInt7fkRxmFE-t-32" value="UserID (FK)" style="text;strokeColor=none;fillColor=none;spacingLeft=4;spacingRight=4;overflow=hidden;rotatable=0;points=[[0,0.5],[1,0.5]];portConstraint=eastwest;fontSize=12;whiteSpace=wrap;html=1;" vertex="1" parent="0lTR1NNInt7fkRxmFE-t-30">
          <mxGeometry y="56" width="160" height="30" as="geometry" />
        </mxCell>
        <mxCell id="0lTR1NNInt7fkRxmFE-t-33" value="BookID (FK)" style="text;strokeColor=none;fillColor=none;spacingLeft=4;spacingRight=4;overflow=hidden;rotatable=0;points=[[0,0.5],[1,0.5]];portConstraint=eastwest;fontSize=12;whiteSpace=wrap;html=1;" vertex="1" parent="0lTR1NNInt7fkRxmFE-t-30">
          <mxGeometry y="86" width="160" height="30" as="geometry" />
        </mxCell>
        <mxCell id="0lTR1NNInt7fkRxmFE-t-34" value="Text" style="text;strokeColor=none;fillColor=none;spacingLeft=4;spacingRight=4;overflow=hidden;rotatable=0;points=[[0,0.5],[1,0.5]];portConstraint=eastwest;fontSize=12;whiteSpace=wrap;html=1;" vertex="1" parent="0lTR1NNInt7fkRxmFE-t-30">
          <mxGeometry y="116" width="160" height="30" as="geometry" />
        </mxCell>
        <mxCell id="0lTR1NNInt7fkRxmFE-t-35" value="Rating" style="text;strokeColor=none;fillColor=none;spacingLeft=4;spacingRight=4;overflow=hidden;rotatable=0;points=[[0,0.5],[1,0.5]];portConstraint=eastwest;fontSize=12;whiteSpace=wrap;html=1;" vertex="1" parent="0lTR1NNInt7fkRxmFE-t-30">
          <mxGeometry y="146" width="160" height="30" as="geometry" />
        </mxCell>
        <mxCell id="0lTR1NNInt7fkRxmFE-t-36" value="User" style="swimlane;fontStyle=0;childLayout=stackLayout;horizontal=1;startSize=26;horizontalStack=0;resizeParent=1;resizeParentMax=0;resizeLast=0;collapsible=1;marginBottom=0;align=center;fontSize=14;fillColor=#1ba1e2;fontColor=#ffffff;strokeColor=#006EAF;" vertex="1" parent="1">
          <mxGeometry x="380" y="550" width="160" height="116" as="geometry" />
        </mxCell>
        <mxCell id="0lTR1NNInt7fkRxmFE-t-37" value="&lt;u&gt;ID&lt;/u&gt;" style="text;strokeColor=none;fillColor=none;spacingLeft=4;spacingRight=4;overflow=hidden;rotatable=0;points=[[0,0.5],[1,0.5]];portConstraint=eastwest;fontSize=12;whiteSpace=wrap;html=1;" vertex="1" parent="0lTR1NNInt7fkRxmFE-t-36">
          <mxGeometry y="26" width="160" height="30" as="geometry" />
        </mxCell>
        <mxCell id="0lTR1NNInt7fkRxmFE-t-38" value="phonenumber" style="text;strokeColor=none;fillColor=none;spacingLeft=4;spacingRight=4;overflow=hidden;rotatable=0;points=[[0,0.5],[1,0.5]];portConstraint=eastwest;fontSize=12;whiteSpace=wrap;html=1;" vertex="1" parent="0lTR1NNInt7fkRxmFE-t-36">
          <mxGeometry y="56" width="160" height="30" as="geometry" />
        </mxCell>
        <mxCell id="0lTR1NNInt7fkRxmFE-t-39" value="password" style="text;strokeColor=none;fillColor=none;spacingLeft=4;spacingRight=4;overflow=hidden;rotatable=0;points=[[0,0.5],[1,0.5]];portConstraint=eastwest;fontSize=12;whiteSpace=wrap;html=1;" vertex="1" parent="0lTR1NNInt7fkRxmFE-t-36">
          <mxGeometry y="86" width="160" height="30" as="geometry" />
        </mxCell>
        <mxCell id="0lTR1NNInt7fkRxmFE-t-40" value="Login" style="shape=rhombus;perimeter=rhombusPerimeter;whiteSpace=wrap;html=1;align=center;fillColor=#76608a;fontColor=#ffffff;strokeColor=#432D57;" vertex="1" parent="1">
          <mxGeometry x="640" y="505" width="120" height="60" as="geometry" />
        </mxCell>
        <mxCell id="0lTR1NNInt7fkRxmFE-t-41" value="ForgetPassword" style="shape=rhombus;perimeter=rhombusPerimeter;whiteSpace=wrap;html=1;align=center;fillColor=#76608a;fontColor=#ffffff;strokeColor=#432D57;" vertex="1" parent="1">
          <mxGeometry x="640" y="651" width="120" height="60" as="geometry" />
        </mxCell>
        <mxCell id="0lTR1NNInt7fkRxmFE-t-42" style="edgeStyle=none;rounded=0;orthogonalLoop=1;jettySize=auto;html=1;entryX=0;entryY=0.5;entryDx=0;entryDy=0;elbow=vertical;" edge="1" parent="1" source="0lTR1NNInt7fkRxmFE-t-43" target="0lTR1NNInt7fkRxmFE-t-28">
          <mxGeometry relative="1" as="geometry" />
        </mxCell>
        <mxCell id="0lTR1NNInt7fkRxmFE-t-43" value="SignUp" style="shape=rhombus;perimeter=rhombusPerimeter;whiteSpace=wrap;html=1;align=center;fillColor=#76608a;fontColor=#ffffff;strokeColor=#432D57;" vertex="1" parent="1">
          <mxGeometry x="640" y="578" width="120" height="60" as="geometry" />
        </mxCell>
        <mxCell id="0lTR1NNInt7fkRxmFE-t-44" style="edgeStyle=none;rounded=0;orthogonalLoop=1;jettySize=auto;html=1;entryX=-0.016;entryY=0.71;entryDx=0;entryDy=0;entryPerimeter=0;elbow=vertical;" edge="1" parent="1" source="0lTR1NNInt7fkRxmFE-t-41" target="0lTR1NNInt7fkRxmFE-t-28">
          <mxGeometry relative="1" as="geometry">
            <Array as="points">
              <mxPoint x="810" y="680" />
            </Array>
          </mxGeometry>
        </mxCell>
        <mxCell id="0lTR1NNInt7fkRxmFE-t-45" style="edgeStyle=none;rounded=0;orthogonalLoop=1;jettySize=auto;html=1;entryX=0;entryY=0.182;entryDx=0;entryDy=0;entryPerimeter=0;elbow=vertical;" edge="1" parent="1" source="0lTR1NNInt7fkRxmFE-t-40" target="0lTR1NNInt7fkRxmFE-t-28">
          <mxGeometry relative="1" as="geometry">
            <Array as="points">
              <mxPoint x="810" y="535" />
            </Array>
          </mxGeometry>
        </mxCell>
        <mxCell id="0lTR1NNInt7fkRxmFE-t-46" value="Search" style="shape=rhombus;perimeter=rhombusPerimeter;whiteSpace=wrap;html=1;align=center;fillColor=#76608a;fontColor=#ffffff;strokeColor=#432D57;" vertex="1" parent="1">
          <mxGeometry x="170" y="445" width="120" height="60" as="geometry" />
        </mxCell>
        <mxCell id="0lTR1NNInt7fkRxmFE-t-47" value="Type" style="ellipse;whiteSpace=wrap;html=1;align=center;fillColor=#647687;fontColor=#ffffff;strokeColor=#314354;" vertex="1" parent="1">
          <mxGeometry x="30" y="455" width="100" height="40" as="geometry" />
        </mxCell>
        <mxCell id="0lTR1NNInt7fkRxmFE-t-48" value="Author" style="ellipse;whiteSpace=wrap;html=1;align=center;fillColor=#647687;fontColor=#ffffff;strokeColor=#314354;" vertex="1" parent="1">
          <mxGeometry x="30" y="400" width="100" height="40" as="geometry" />
        </mxCell>
        <mxCell id="0lTR1NNInt7fkRxmFE-t-49" value="Genre" style="ellipse;whiteSpace=wrap;html=1;align=center;fillColor=#647687;fontColor=#ffffff;strokeColor=#314354;" vertex="1" parent="1">
          <mxGeometry x="30" y="510" width="100" height="40" as="geometry" />
        </mxCell>
        <mxCell id="0lTR1NNInt7fkRxmFE-t-50" value="Price" style="ellipse;whiteSpace=wrap;html=1;align=center;fillColor=#647687;fontColor=#ffffff;strokeColor=#314354;" vertex="1" parent="1">
          <mxGeometry x="30" y="565" width="100" height="40" as="geometry" />
        </mxCell>
        <mxCell id="0lTR1NNInt7fkRxmFE-t-51" style="edgeStyle=none;rounded=0;orthogonalLoop=1;jettySize=auto;html=1;entryX=0;entryY=0.5;entryDx=0;entryDy=0;elbow=vertical;" edge="1" parent="1" source="0lTR1NNInt7fkRxmFE-t-46" target="0lTR1NNInt7fkRxmFE-t-46">
          <mxGeometry relative="1" as="geometry" />
        </mxCell>
        <mxCell id="0lTR1NNInt7fkRxmFE-t-52" value="" style="endArrow=none;html=1;rounded=0;elbow=vertical;" edge="1" parent="1" target="0lTR1NNInt7fkRxmFE-t-46">
          <mxGeometry relative="1" as="geometry">
            <mxPoint x="130" y="419.65999999999997" as="sourcePoint" />
            <mxPoint x="290" y="419.65999999999997" as="targetPoint" />
          </mxGeometry>
        </mxCell>
        <mxCell id="0lTR1NNInt7fkRxmFE-t-53" value="" style="endArrow=none;html=1;rounded=0;elbow=vertical;" edge="1" parent="1" target="0lTR1NNInt7fkRxmFE-t-46">
          <mxGeometry relative="1" as="geometry">
            <mxPoint x="130" y="588.33" as="sourcePoint" />
            <mxPoint x="202" y="627.6700000000001" as="targetPoint" />
          </mxGeometry>
        </mxCell>
        <mxCell id="0lTR1NNInt7fkRxmFE-t-54" value="" style="endArrow=none;html=1;rounded=0;elbow=vertical;exitX=1;exitY=0.5;exitDx=0;exitDy=0;" edge="1" parent="1" source="0lTR1NNInt7fkRxmFE-t-49">
          <mxGeometry relative="1" as="geometry">
            <mxPoint x="110" y="578" as="sourcePoint" />
            <mxPoint x="192" y="485.67" as="targetPoint" />
          </mxGeometry>
        </mxCell>
        <mxCell id="0lTR1NNInt7fkRxmFE-t-55" value="" style="endArrow=none;html=1;rounded=0;elbow=vertical;exitX=1;exitY=0.5;exitDx=0;exitDy=0;" edge="1" parent="1" source="0lTR1NNInt7fkRxmFE-t-47">
          <mxGeometry relative="1" as="geometry">
            <mxPoint x="110" y="524.33" as="sourcePoint" />
            <mxPoint x="170" y="475" as="targetPoint" />
          </mxGeometry>
        </mxCell>
        <mxCell id="0lTR1NNInt7fkRxmFE-t-56" value="" style="endArrow=none;html=1;rounded=0;elbow=vertical;entryX=-0.009;entryY=0.794;entryDx=0;entryDy=0;entryPerimeter=0;exitX=0.5;exitY=0;exitDx=0;exitDy=0;" edge="1" parent="1" source="0lTR1NNInt7fkRxmFE-t-46" target="0lTR1NNInt7fkRxmFE-t-23">
          <mxGeometry relative="1" as="geometry">
            <mxPoint x="230" y="440" as="sourcePoint" />
            <mxPoint x="390" y="440" as="targetPoint" />
            <Array as="points">
              <mxPoint x="230" y="250" />
            </Array>
          </mxGeometry>
        </mxCell>
        <mxCell id="0lTR1NNInt7fkRxmFE-t-57" value="N" style="resizable=0;html=1;whiteSpace=wrap;align=right;verticalAlign=bottom;" connectable="0" vertex="1" parent="0lTR1NNInt7fkRxmFE-t-56">
          <mxGeometry x="1" relative="1" as="geometry">
            <mxPoint x="-29" as="offset" />
          </mxGeometry>
        </mxCell>
        <mxCell id="0lTR1NNInt7fkRxmFE-t-58" style="edgeStyle=none;rounded=0;orthogonalLoop=1;jettySize=auto;html=1;entryX=0.5;entryY=0;entryDx=0;entryDy=0;elbow=vertical;" edge="1" parent="1" source="0lTR1NNInt7fkRxmFE-t-60" target="0lTR1NNInt7fkRxmFE-t-36">
          <mxGeometry relative="1" as="geometry" />
        </mxCell>
        <mxCell id="0lTR1NNInt7fkRxmFE-t-59" style="edgeStyle=none;rounded=0;orthogonalLoop=1;jettySize=auto;html=1;entryX=0;entryY=0.077;entryDx=0;entryDy=0;elbow=vertical;entryPerimeter=0;" edge="1" parent="1" source="0lTR1NNInt7fkRxmFE-t-60" target="0lTR1NNInt7fkRxmFE-t-13">
          <mxGeometry relative="1" as="geometry">
            <Array as="points">
              <mxPoint x="460" y="420" />
            </Array>
          </mxGeometry>
        </mxCell>
        <mxCell id="0lTR1NNInt7fkRxmFE-t-60" value="Interested_In" style="shape=rhombus;perimeter=rhombusPerimeter;whiteSpace=wrap;html=1;align=center;fillColor=#76608a;fontColor=#ffffff;strokeColor=#432D57;" vertex="1" parent="1">
          <mxGeometry x="400" y="455" width="120" height="60" as="geometry" />
        </mxCell>
        <mxCell id="0lTR1NNInt7fkRxmFE-t-61" value="Contains" style="shape=rhombus;perimeter=rhombusPerimeter;whiteSpace=wrap;html=1;align=center;fillColor=#76608a;fontColor=#ffffff;strokeColor=#432D57;" vertex="1" parent="1">
          <mxGeometry x="520" y="240" width="120" height="60" as="geometry" />
        </mxCell>
        <mxCell id="0lTR1NNInt7fkRxmFE-t-62" value="" style="endArrow=none;html=1;rounded=0;elbow=vertical;exitX=0.5;exitY=0;exitDx=0;exitDy=0;entryX=0.25;entryY=1;entryDx=0;entryDy=0;" edge="1" parent="1" target="0lTR1NNInt7fkRxmFE-t-6">
          <mxGeometry relative="1" as="geometry">
            <mxPoint x="579.92" y="240" as="sourcePoint" />
            <mxPoint x="580" y="190" as="targetPoint" />
          </mxGeometry>
        </mxCell>
        <mxCell id="0lTR1NNInt7fkRxmFE-t-63" value="N" style="resizable=0;html=1;whiteSpace=wrap;align=right;verticalAlign=bottom;" connectable="0" vertex="1" parent="0lTR1NNInt7fkRxmFE-t-62">
          <mxGeometry x="1" relative="1" as="geometry">
            <mxPoint y="34" as="offset" />
          </mxGeometry>
        </mxCell>
        <mxCell id="0lTR1NNInt7fkRxmFE-t-64" value="" style="endArrow=none;html=1;rounded=0;elbow=vertical;exitX=0;exitY=0.5;exitDx=0;exitDy=0;entryX=0.998;entryY=0.469;entryDx=0;entryDy=0;entryPerimeter=0;" edge="1" parent="1" source="0lTR1NNInt7fkRxmFE-t-61" target="0lTR1NNInt7fkRxmFE-t-24">
          <mxGeometry relative="1" as="geometry">
            <mxPoint x="490" y="310" as="sourcePoint" />
            <mxPoint x="490" y="260" as="targetPoint" />
          </mxGeometry>
        </mxCell>
        <mxCell id="0lTR1NNInt7fkRxmFE-t-65" value="N" style="resizable=0;html=1;whiteSpace=wrap;align=right;verticalAlign=bottom;" connectable="0" vertex="1" parent="0lTR1NNInt7fkRxmFE-t-64">
          <mxGeometry x="1" relative="1" as="geometry">
            <mxPoint x="30" y="1" as="offset" />
          </mxGeometry>
        </mxCell>
        <mxCell id="0lTR1NNInt7fkRxmFE-t-66" style="edgeStyle=none;rounded=0;orthogonalLoop=1;jettySize=auto;html=1;elbow=vertical;entryX=-0.012;entryY=0.175;entryDx=0;entryDy=0;entryPerimeter=0;" edge="1" parent="1" source="0lTR1NNInt7fkRxmFE-t-68" target="0lTR1NNInt7fkRxmFE-t-36">
          <mxGeometry relative="1" as="geometry">
            <mxPoint x="330" y="590" as="targetPoint" />
            <Array as="points">
              <mxPoint x="330" y="360" />
              <mxPoint x="330" y="570" />
            </Array>
          </mxGeometry>
        </mxCell>
        <mxCell id="0lTR1NNInt7fkRxmFE-t-67" style="edgeStyle=none;rounded=0;orthogonalLoop=1;jettySize=auto;html=1;elbow=vertical;entryX=0.865;entryY=0.988;entryDx=0;entryDy=0;entryPerimeter=0;" edge="1" parent="1" source="0lTR1NNInt7fkRxmFE-t-68" target="0lTR1NNInt7fkRxmFE-t-9">
          <mxGeometry relative="1" as="geometry">
            <mxPoint x="670" y="360" as="targetPoint" />
            <Array as="points">
              <mxPoint x="680" y="360" />
            </Array>
          </mxGeometry>
        </mxCell>
        <mxCell id="0lTR1NNInt7fkRxmFE-t-68" value="Management" style="shape=rhombus;perimeter=rhombusPerimeter;whiteSpace=wrap;html=1;align=center;fillColor=#76608a;fontColor=#ffffff;strokeColor=#432D57;" vertex="1" parent="1">
          <mxGeometry x="520" y="330" width="120" height="60" as="geometry" />
        </mxCell>
        <mxCell id="0lTR1NNInt7fkRxmFE-t-69" value="Gifted_Items" style="shape=rhombus;perimeter=rhombusPerimeter;whiteSpace=wrap;html=1;align=center;fillColor=#76608a;fontColor=#ffffff;strokeColor=#432D57;" vertex="1" parent="1">
          <mxGeometry x="820" y="60" width="120" height="60" as="geometry" />
        </mxCell>
        <mxCell id="0lTR1NNInt7fkRxmFE-t-70" style="edgeStyle=none;rounded=0;orthogonalLoop=1;jettySize=auto;html=1;entryX=1.015;entryY=0.163;entryDx=0;entryDy=0;entryPerimeter=0;elbow=vertical;" edge="1" parent="1" source="0lTR1NNInt7fkRxmFE-t-69" target="0lTR1NNInt7fkRxmFE-t-6">
          <mxGeometry relative="1" as="geometry" />
        </mxCell>
        <mxCell id="0lTR1NNInt7fkRxmFE-t-71" value="" style="endArrow=none;html=1;rounded=0;elbow=vertical;exitX=1;exitY=0.5;exitDx=0;exitDy=0;entryX=-0.001;entryY=0.139;entryDx=0;entryDy=0;entryPerimeter=0;" edge="1" parent="1" source="0lTR1NNInt7fkRxmFE-t-69" target="0lTR1NNInt7fkRxmFE-t-1">
          <mxGeometry relative="1" as="geometry">
            <mxPoint x="910" y="140" as="sourcePoint" />
            <mxPoint x="1070" y="140" as="targetPoint" />
            <Array as="points">
              <mxPoint x="990" y="90" />
            </Array>
          </mxGeometry>
        </mxCell>
        <mxCell id="0lTR1NNInt7fkRxmFE-t-72" value="N" style="resizable=0;html=1;whiteSpace=wrap;align=right;verticalAlign=bottom;" connectable="0" vertex="1" parent="0lTR1NNInt7fkRxmFE-t-71">
          <mxGeometry x="1" relative="1" as="geometry">
            <mxPoint x="-30" as="offset" />
          </mxGeometry>
        </mxCell>
        <mxCell id="0lTR1NNInt7fkRxmFE-t-73" value="Recieved_Gifts" style="shape=rhombus;perimeter=rhombusPerimeter;whiteSpace=wrap;html=1;align=center;fillColor=#76608a;fontColor=#ffffff;strokeColor=#432D57;" vertex="1" parent="1">
          <mxGeometry x="1070" y="365" width="120" height="60" as="geometry" />
        </mxCell>
        <mxCell id="0lTR1NNInt7fkRxmFE-t-74" style="edgeStyle=none;rounded=0;orthogonalLoop=1;jettySize=auto;html=1;entryX=0.481;entryY=1.092;entryDx=0;entryDy=0;entryPerimeter=0;elbow=vertical;exitX=0.5;exitY=1;exitDx=0;exitDy=0;" edge="1" parent="1" source="0lTR1NNInt7fkRxmFE-t-73">
          <mxGeometry relative="1" as="geometry">
            <mxPoint x="1033.04" y="470" as="sourcePoint" />
            <mxPoint x="510.00000000000006" y="668.76" as="targetPoint" />
            <Array as="points">
              <mxPoint x="1133.04" y="520" />
              <mxPoint x="1133.04" y="720" />
              <mxPoint x="510.04" y="720" />
            </Array>
          </mxGeometry>
        </mxCell>
        <mxCell id="0lTR1NNInt7fkRxmFE-t-75" value="" style="endArrow=none;html=1;rounded=0;elbow=vertical;exitX=0.5;exitY=0;exitDx=0;exitDy=0;entryX=0.677;entryY=0.98;entryDx=0;entryDy=0;entryPerimeter=0;" edge="1" parent="1" source="0lTR1NNInt7fkRxmFE-t-73" target="0lTR1NNInt7fkRxmFE-t-5">
          <mxGeometry relative="1" as="geometry">
            <mxPoint x="920" y="359.5" as="sourcePoint" />
            <mxPoint x="980" y="240" as="targetPoint" />
            <Array as="points">
              <mxPoint x="1130" y="290" />
            </Array>
          </mxGeometry>
        </mxCell>
        <mxCell id="0lTR1NNInt7fkRxmFE-t-76" value="N" style="resizable=0;html=1;whiteSpace=wrap;align=right;verticalAlign=bottom;" connectable="0" vertex="1" parent="0lTR1NNInt7fkRxmFE-t-75">
          <mxGeometry x="1" relative="1" as="geometry">
            <mxPoint x="22" y="95" as="offset" />
          </mxGeometry>
        </mxCell>
        <mxCell id="0lTR1NNInt7fkRxmFE-t-77" value="" style="endArrow=none;html=1;rounded=0;elbow=vertical;exitX=0.5;exitY=1;exitDx=0;exitDy=0;" edge="1" parent="1" source="0lTR1NNInt7fkRxmFE-t-80">
          <mxGeometry relative="1" as="geometry">
            <mxPoint x="300" y="182" as="sourcePoint" />
            <mxPoint x="30" y="733" as="targetPoint" />
            <Array as="points">
              <mxPoint x="-40" y="440" />
              <mxPoint x="-40" y="733" />
            </Array>
          </mxGeometry>
        </mxCell>
        <mxCell id="0lTR1NNInt7fkRxmFE-t-78" value="N" style="resizable=0;html=1;whiteSpace=wrap;align=right;verticalAlign=bottom;" connectable="0" vertex="1" parent="0lTR1NNInt7fkRxmFE-t-77">
          <mxGeometry x="1" relative="1" as="geometry">
            <mxPoint x="-200" y="-148" as="offset" />
          </mxGeometry>
        </mxCell>
        <mxCell id="0lTR1NNInt7fkRxmFE-t-79" value="" style="endArrow=none;html=1;rounded=0;elbow=vertical;exitX=0;exitY=0.5;exitDx=0;exitDy=0;" edge="1" parent="1" source="0lTR1NNInt7fkRxmFE-t-21" target="0lTR1NNInt7fkRxmFE-t-80">
          <mxGeometry relative="1" as="geometry">
            <mxPoint x="310" y="181" as="sourcePoint" />
            <mxPoint x="130" y="732.58" as="targetPoint" />
            <Array as="points">
              <mxPoint x="-40" y="180" />
            </Array>
          </mxGeometry>
        </mxCell>
        <mxCell id="0lTR1NNInt7fkRxmFE-t-80" value="Contains" style="shape=rhombus;perimeter=rhombusPerimeter;whiteSpace=wrap;html=1;align=center;fillColor=#76608a;fontColor=#ffffff;strokeColor=#432D57;" vertex="1" parent="1">
          <mxGeometry x="-100" y="380" width="120" height="60" as="geometry" />
        </mxCell>
        <mxCell id="0lTR1NNInt7fkRxmFE-t-81" value="N" style="resizable=0;html=1;whiteSpace=wrap;align=right;verticalAlign=bottom;" connectable="0" vertex="1" parent="1">
          <mxGeometry x="-39.667186505117115" y="587.579177754895" as="geometry">
            <mxPoint x="-3" y="-291" as="offset" />
          </mxGeometry>
        </mxCell>
        <mxCell id="0lTR1NNInt7fkRxmFE-t-82" style="edgeStyle=none;rounded=0;orthogonalLoop=1;jettySize=auto;html=1;elbow=vertical;entryX=0.401;entryY=1.052;entryDx=0;entryDy=0;entryPerimeter=0;" edge="1" parent="1" source="0lTR1NNInt7fkRxmFE-t-83" target="0lTR1NNInt7fkRxmFE-t-39">
          <mxGeometry relative="1" as="geometry">
            <mxPoint x="440" y="670" as="targetPoint" />
            <Array as="points">
              <mxPoint x="580" y="780" />
              <mxPoint x="444" y="780" />
              <mxPoint x="444" y="730" />
            </Array>
          </mxGeometry>
        </mxCell>
        <mxCell id="0lTR1NNInt7fkRxmFE-t-83" value="UserReviews" style="shape=rhombus;perimeter=rhombusPerimeter;whiteSpace=wrap;html=1;align=center;fillColor=#76608a;fontColor=#ffffff;strokeColor=#432D57;" vertex="1" parent="1">
          <mxGeometry x="520" y="820" width="120" height="60" as="geometry" />
        </mxCell>
        <mxCell id="0lTR1NNInt7fkRxmFE-t-84" value="" style="endArrow=none;html=1;rounded=0;elbow=vertical;entryX=0.5;entryY=1;entryDx=0;entryDy=0;" edge="1" parent="1" target="0lTR1NNInt7fkRxmFE-t-83">
          <mxGeometry relative="1" as="geometry">
            <mxPoint x="460" y="920" as="sourcePoint" />
            <mxPoint x="620" y="920" as="targetPoint" />
            <Array as="points">
              <mxPoint x="580" y="920" />
            </Array>
          </mxGeometry>
        </mxCell>
        <mxCell id="0lTR1NNInt7fkRxmFE-t-85" value="N" style="resizable=0;html=1;whiteSpace=wrap;align=right;verticalAlign=bottom;" connectable="0" vertex="1" parent="0lTR1NNInt7fkRxmFE-t-84">
          <mxGeometry x="1" relative="1" as="geometry">
            <mxPoint x="-30" y="40" as="offset" />
          </mxGeometry>
        </mxCell>
        <mxCell id="0lTR1NNInt7fkRxmFE-t-86" value="" style="endArrow=none;html=1;rounded=0;elbow=vertical;entryX=-0.007;entryY=0.334;entryDx=0;entryDy=0;entryPerimeter=0;" edge="1" parent="1">
          <mxGeometry relative="1" as="geometry">
            <mxPoint x="230" y="505" as="sourcePoint" />
            <mxPoint x="378.8800000000001" y="616.63" as="targetPoint" />
            <Array as="points">
              <mxPoint x="230" y="616.61" />
            </Array>
          </mxGeometry>
        </mxCell>
        <mxCell id="0lTR1NNInt7fkRxmFE-t-87" value="N" style="resizable=0;html=1;whiteSpace=wrap;align=right;verticalAlign=bottom;" connectable="0" vertex="1" parent="0lTR1NNInt7fkRxmFE-t-86">
          <mxGeometry x="1" relative="1" as="geometry">
            <mxPoint x="-79" as="offset" />
          </mxGeometry>
        </mxCell>
        <mxCell id="0lTR1NNInt7fkRxmFE-t-88" value="BookReviews" style="shape=rhombus;perimeter=rhombusPerimeter;whiteSpace=wrap;html=1;align=center;fillColor=#76608a;fontColor=#ffffff;strokeColor=#432D57;" vertex="1" parent="1">
          <mxGeometry x="-230" y="380" width="120" height="60" as="geometry" />
        </mxCell>
        <mxCell id="0lTR1NNInt7fkRxmFE-t-89" style="edgeStyle=none;rounded=0;orthogonalLoop=1;jettySize=auto;html=1;entryX=-0.006;entryY=0.038;entryDx=0;entryDy=0;entryPerimeter=0;elbow=vertical;" edge="1" parent="1" source="0lTR1NNInt7fkRxmFE-t-88" target="0lTR1NNInt7fkRxmFE-t-20">
          <mxGeometry relative="1" as="geometry">
            <Array as="points">
              <mxPoint x="-170" y="150" />
            </Array>
          </mxGeometry>
        </mxCell>
        <mxCell id="0lTR1NNInt7fkRxmFE-t-90" value="" style="endArrow=none;html=1;rounded=0;elbow=vertical;entryX=-0.012;entryY=0.758;entryDx=0;entryDy=0;entryPerimeter=0;" edge="1" parent="1" target="0lTR1NNInt7fkRxmFE-t-32">
          <mxGeometry relative="1" as="geometry">
            <mxPoint x="-170" y="440" as="sourcePoint" />
            <mxPoint x="290" y="901" as="targetPoint" />
            <Array as="points">
              <mxPoint x="-170" y="901" />
            </Array>
          </mxGeometry>
        </mxCell>
        <mxCell id="0lTR1NNInt7fkRxmFE-t-91" value="N" style="resizable=0;html=1;whiteSpace=wrap;align=right;verticalAlign=bottom;" connectable="0" vertex="1" parent="0lTR1NNInt7fkRxmFE-t-90">
          <mxGeometry x="1" relative="1" as="geometry">
            <mxPoint x="-468" y="-643" as="offset" />
          </mxGeometry>
        </mxCell>
        <mxCell id="0lTR1NNInt7fkRxmFE-t-92" value="" style="endArrow=none;html=1;rounded=0;elbow=vertical;entryX=0;entryY=0.5;entryDx=0;entryDy=0;" edge="1" parent="1" target="0lTR1NNInt7fkRxmFE-t-40">
          <mxGeometry relative="1" as="geometry">
            <mxPoint x="540" y="587.58" as="sourcePoint" />
            <mxPoint x="700" y="587.58" as="targetPoint" />
            <Array as="points">
              <mxPoint x="580" y="535" />
            </Array>
          </mxGeometry>
        </mxCell>
        <mxCell id="0lTR1NNInt7fkRxmFE-t-93" value="N" style="resizable=0;html=1;whiteSpace=wrap;align=right;verticalAlign=bottom;" connectable="0" vertex="1" parent="0lTR1NNInt7fkRxmFE-t-92">
          <mxGeometry x="1" relative="1" as="geometry">
            <mxPoint x="-30" as="offset" />
          </mxGeometry>
        </mxCell>
        <mxCell id="0lTR1NNInt7fkRxmFE-t-94" value="" style="endArrow=none;html=1;rounded=0;elbow=vertical;" edge="1" parent="1">
          <mxGeometry relative="1" as="geometry">
            <mxPoint x="540" y="608" as="sourcePoint" />
            <mxPoint x="640" y="607.66" as="targetPoint" />
          </mxGeometry>
        </mxCell>
        <mxCell id="0lTR1NNInt7fkRxmFE-t-95" value="N" style="resizable=0;html=1;whiteSpace=wrap;align=right;verticalAlign=bottom;" connectable="0" vertex="1" parent="0lTR1NNInt7fkRxmFE-t-94">
          <mxGeometry x="1" relative="1" as="geometry">
            <mxPoint x="-30" as="offset" />
          </mxGeometry>
        </mxCell>
        <mxCell id="0lTR1NNInt7fkRxmFE-t-96" value="" style="endArrow=none;html=1;rounded=0;elbow=vertical;entryX=0;entryY=0.5;entryDx=0;entryDy=0;" edge="1" parent="1" target="0lTR1NNInt7fkRxmFE-t-41">
          <mxGeometry relative="1" as="geometry">
            <mxPoint x="540" y="638" as="sourcePoint" />
            <mxPoint x="700" y="638" as="targetPoint" />
            <Array as="points">
              <mxPoint x="580" y="680" />
            </Array>
          </mxGeometry>
        </mxCell>
        <mxCell id="0lTR1NNInt7fkRxmFE-t-97" value="N" style="resizable=0;html=1;whiteSpace=wrap;align=right;verticalAlign=bottom;" connectable="0" vertex="1" parent="0lTR1NNInt7fkRxmFE-t-96">
          <mxGeometry x="1" relative="1" as="geometry">
            <mxPoint x="-30" as="offset" />
          </mxGeometry>
        </mxCell>
        <mxCell id="0lTR1NNInt7fkRxmFE-t-98" style="edgeStyle=none;rounded=0;orthogonalLoop=1;jettySize=auto;html=1;entryX=1;entryY=0.5;entryDx=0;entryDy=0;elbow=vertical;" edge="1" parent="1" source="0lTR1NNInt7fkRxmFE-t-99" target="0lTR1NNInt7fkRxmFE-t-18">
          <mxGeometry relative="1" as="geometry" />
        </mxCell>
        <mxCell id="0lTR1NNInt7fkRxmFE-t-99" value="ReadBooks" style="shape=rhombus;perimeter=rhombusPerimeter;whiteSpace=wrap;html=1;align=center;fillColor=#76608a;fontColor=#ffffff;strokeColor=#432D57;" vertex="1" parent="1">
          <mxGeometry x="260" y="703" width="120" height="60" as="geometry" />
        </mxCell>
        <mxCell id="0lTR1NNInt7fkRxmFE-t-100" value="N" style="resizable=0;html=1;whiteSpace=wrap;align=right;verticalAlign=bottom;" connectable="0" vertex="1" parent="1">
          <mxGeometry x="-40" y="580" as="geometry" />
        </mxCell>
        <mxCell id="0lTR1NNInt7fkRxmFE-t-101" value="IsFavorite" style="shape=rhombus;perimeter=rhombusPerimeter;whiteSpace=wrap;html=1;align=center;fillColor=#76608a;fontColor=#ffffff;strokeColor=#432D57;" vertex="1" parent="1">
          <mxGeometry x="770" y="213" width="120" height="60" as="geometry" />
        </mxCell>
        <mxCell id="0lTR1NNInt7fkRxmFE-t-102" value="" style="endArrow=none;html=1;rounded=0;elbow=vertical;entryX=0;entryY=0.5;entryDx=0;entryDy=0;" edge="1" parent="1" target="0lTR1NNInt7fkRxmFE-t-101">
          <mxGeometry relative="1" as="geometry">
            <mxPoint x="470" y="320" as="sourcePoint" />
            <mxPoint x="630" y="320" as="targetPoint" />
            <Array as="points">
              <mxPoint x="720" y="320" />
              <mxPoint x="720" y="243" />
            </Array>
          </mxGeometry>
        </mxCell>
        <mxCell id="0lTR1NNInt7fkRxmFE-t-103" value="N" style="resizable=0;html=1;whiteSpace=wrap;align=right;verticalAlign=bottom;" connectable="0" vertex="1" parent="0lTR1NNInt7fkRxmFE-t-102">
          <mxGeometry x="1" relative="1" as="geometry">
            <mxPoint x="-20" as="offset" />
          </mxGeometry>
        </mxCell>
        <mxCell id="0lTR1NNInt7fkRxmFE-t-104" value="" style="endArrow=none;html=1;rounded=0;elbow=vertical;exitX=0.5;exitY=1;exitDx=0;exitDy=0;entryX=0.5;entryY=0;entryDx=0;entryDy=0;" edge="1" parent="1" source="0lTR1NNInt7fkRxmFE-t-101" target="0lTR1NNInt7fkRxmFE-t-10">
          <mxGeometry relative="1" as="geometry">
            <mxPoint x="830" y="280" as="sourcePoint" />
            <mxPoint x="970" y="273" as="targetPoint" />
          </mxGeometry>
        </mxCell>
        <mxCell id="0lTR1NNInt7fkRxmFE-t-105" value="N" style="resizable=0;html=1;whiteSpace=wrap;align=right;verticalAlign=bottom;" connectable="0" vertex="1" parent="0lTR1NNInt7fkRxmFE-t-104">
          <mxGeometry x="1" relative="1" as="geometry">
            <mxPoint y="-18" as="offset" />
          </mxGeometry>
        </mxCell>
        <mxCell id="0lTR1NNInt7fkRxmFE-t-106" value="Recommendations" style="swimlane;fontStyle=0;childLayout=stackLayout;horizontal=1;startSize=26;horizontalStack=0;resizeParent=1;resizeParentMax=0;resizeLast=0;collapsible=1;marginBottom=0;align=center;fontSize=14;fillColor=#1ba1e2;fontColor=#ffffff;strokeColor=#006EAF;" vertex="1" parent="1">
          <mxGeometry x="590" y="-86" width="160" height="86" as="geometry" />
        </mxCell>
        <mxCell id="0lTR1NNInt7fkRxmFE-t-107" value="&lt;u&gt;UserID &lt;/u&gt;(FK)" style="text;strokeColor=none;fillColor=none;spacingLeft=4;spacingRight=4;overflow=hidden;rotatable=0;points=[[0,0.5],[1,0.5]];portConstraint=eastwest;fontSize=12;whiteSpace=wrap;html=1;" vertex="1" parent="0lTR1NNInt7fkRxmFE-t-106">
          <mxGeometry y="26" width="160" height="30" as="geometry" />
        </mxCell>
        <mxCell id="0lTR1NNInt7fkRxmFE-t-108" value="{Books}" style="text;strokeColor=none;fillColor=none;spacingLeft=4;spacingRight=4;overflow=hidden;rotatable=0;points=[[0,0.5],[1,0.5]];portConstraint=eastwest;fontSize=12;whiteSpace=wrap;html=1;" vertex="1" parent="0lTR1NNInt7fkRxmFE-t-106">
          <mxGeometry y="56" width="160" height="30" as="geometry" />
        </mxCell>
        <mxCell id="0lTR1NNInt7fkRxmFE-t-109" value="" style="endArrow=none;html=1;rounded=0;elbow=vertical;exitX=0.502;exitY=1.031;exitDx=0;exitDy=0;exitPerimeter=0;entryX=0.688;entryY=-0.004;entryDx=0;entryDy=0;entryPerimeter=0;" edge="1" parent="1">
          <mxGeometry relative="1" as="geometry">
            <mxPoint x="420.04000000000025" y="1.2723155862204294e-13" as="sourcePoint" />
            <mxPoint x="419.87999999999994" y="137.31599999999992" as="targetPoint" />
            <Array as="points">
              <mxPoint x="419.8" y="108.14" />
            </Array>
          </mxGeometry>
        </mxCell>
        <mxCell id="0lTR1NNInt7fkRxmFE-t-110" value="N" style="resizable=0;html=1;whiteSpace=wrap;align=right;verticalAlign=bottom;" connectable="0" vertex="1" parent="0lTR1NNInt7fkRxmFE-t-109">
          <mxGeometry x="1" relative="1" as="geometry">
            <mxPoint y="-41" as="offset" />
          </mxGeometry>
        </mxCell>
        <mxCell id="0lTR1NNInt7fkRxmFE-t-111" value="" style="endArrow=none;html=1;rounded=0;elbow=vertical;exitX=-0.009;exitY=-0.017;exitDx=0;exitDy=0;exitPerimeter=0;entryX=1;entryY=0.5;entryDx=0;entryDy=0;" edge="1" parent="1" source="0lTR1NNInt7fkRxmFE-t-108" target="0lTR1NNInt7fkRxmFE-t-112">
          <mxGeometry relative="1" as="geometry">
            <mxPoint x="670" y="1" as="sourcePoint" />
            <mxPoint x="401" y="139" as="targetPoint" />
            <Array as="points" />
          </mxGeometry>
        </mxCell>
        <mxCell id="0lTR1NNInt7fkRxmFE-t-112" value="LikedBooks" style="shape=rhombus;perimeter=rhombusPerimeter;whiteSpace=wrap;html=1;align=center;fillColor=#76608a;fontColor=#ffffff;strokeColor=#432D57;" vertex="1" parent="1">
          <mxGeometry x="360" y="-60" width="120" height="60" as="geometry" />
        </mxCell>
        <mxCell id="0lTR1NNInt7fkRxmFE-t-113" value="N" style="resizable=0;html=1;whiteSpace=wrap;align=right;verticalAlign=bottom;" connectable="0" vertex="1" parent="1">
          <mxGeometry x="540.0005034913898" y="-30.00037669036965" as="geometry" />
        </mxCell>
        <mxCell id="0lTR1NNInt7fkRxmFE-t-114" value="" style="endArrow=none;html=1;rounded=0;elbow=vertical;entryX=0.5;entryY=0;entryDx=0;entryDy=0;" edge="1" parent="1" target="0lTR1NNInt7fkRxmFE-t-115">
          <mxGeometry relative="1" as="geometry">
            <mxPoint x="750" y="-30" as="sourcePoint" />
            <mxPoint x="1260" y="-30" as="targetPoint" />
            <Array as="points">
              <mxPoint x="1265" y="-30" />
            </Array>
          </mxGeometry>
        </mxCell>
        <mxCell id="0lTR1NNInt7fkRxmFE-t-115" value="Favorites Suggested" style="shape=rhombus;perimeter=rhombusPerimeter;whiteSpace=wrap;html=1;align=center;fillColor=#76608a;fontColor=#ffffff;strokeColor=#432D57;" vertex="1" parent="1">
          <mxGeometry x="1200" y="213" width="130" height="60" as="geometry" />
        </mxCell>
        <mxCell id="0lTR1NNInt7fkRxmFE-t-116" value="N" style="resizable=0;html=1;whiteSpace=wrap;align=right;verticalAlign=bottom;" connectable="0" vertex="1" parent="1">
          <mxGeometry x="1280.0021412311883" y="309.9950808611072" as="geometry" />
        </mxCell>
        <mxCell id="0lTR1NNInt7fkRxmFE-t-117" value="" style="endArrow=none;html=1;rounded=0;elbow=vertical;entryX=0.5;entryY=1;entryDx=0;entryDy=0;" edge="1" parent="1" target="0lTR1NNInt7fkRxmFE-t-115">
          <mxGeometry relative="1" as="geometry">
            <mxPoint x="910" y="440" as="sourcePoint" />
            <mxPoint x="1260" y="440" as="targetPoint" />
            <Array as="points">
              <mxPoint x="1265" y="440" />
            </Array>
          </mxGeometry>
        </mxCell>
        <mxCell id="0lTR1NNInt7fkRxmFE-t-118" value="N" style="resizable=0;html=1;whiteSpace=wrap;align=right;verticalAlign=bottom;" connectable="0" vertex="1" parent="0lTR1NNInt7fkRxmFE-t-117">
          <mxGeometry x="1" relative="1" as="geometry">
            <mxPoint x="-290" y="8" as="offset" />
          </mxGeometry>
        </mxCell>
      </root>
    </mxGraphModel>
  </diagram>
</mxfile>
